<svg width="12" height="12" viewBox="0 0 12 12" version="1.1" xmlns="http://www.w3.org/2000/svg" xmlns:xlink="http://www.w3.org/1999/xlink">
<title>Shape</title>
<desc>Created using Figma</desc>
<g id="Canvas" transform="translate(-6618 -202)">
<rect x="6618" y="202" width="12" height="12" fill="#FFFFFF"/>
<clipPath id="clip-0" clip-rule="evenodd">
<path d="M 6605 0L 6925 0L 6925 2332L 6605 2332L 6605 0Z" fill="#FFFFFF"/>
</clipPath>
<g id="Search / Mobile" clip-path="url(#clip-0)">
<path d="M 6605 0L 6925 0L 6925 2332L 6605 2332L 6605 0Z" fill="#FFFFFF"/>
<g id="bg">
<use xlink:href="#path0_fill" transform="translate(6605 0)" fill="#EAEAEA"/>
</g>
<g id="Group 2">
<g id="Rectangle">
<use xlink:href="#path1_fill" transform="translate(6605 140)" fill="#FFFFFF"/>
</g>
<g id="Shape">
<use xlink:href="#path2_fill" transform="translate(6618 202)" fill="#00ACE2"/>
</g>
</g>
</g>
</g>
<defs>
<path id="path0_fill" fill-rule="evenodd" d="M 0 0L 320 0L 320 1146L 0 1146L 0 0Z"/>
<path id="path1_fill" fill-rule="evenodd" d="M 0 0L 320 0L 320 118L 0 118L 0 0Z"/>
<path id="path2_fill" fill-rule="evenodd" d="M 4.8 12L 7.8 6.94286L 11.0571 6.94286C 11.5714 6.94286 12 6.51429 12 6C 12 5.48571 11.5714 5.05714 11.0571 5.05714L 7.8 5.05714L 4.8 0L 3.6 0L 5.05714 5.05714L 1.8 5.05714L 0.857143 3.77143L 0 3.77143L 0.6 6L 0 8.22857L 0.857143 8.22857L 1.8 6.94286L 5.05714 6.94286L 3.6 12L 4.8 12Z"/>
</defs>
</svg>
