<svg width="16" height="15" viewBox="0 0 16 15" version="1.1" xmlns="http://www.w3.org/2000/svg" xmlns:xlink="http://www.w3.org/1999/xlink">
<title>rss</title>
<desc>Created using Figma</desc>
<g id="Canvas" transform="translate(-1979 -4607)">
<g id="rss">
<g id="Shape">
<use xlink:href="#path0_fill" transform="translate(1979.18 4607.04)" fill="#FFFFFF"/>
</g>
</g>
</g>
<defs>
<path id="path0_fill" fill-rule="evenodd" d="M 10.623 4.24145C 5.88704 -0.521551 0.0140381 0.0184489 0.0140381 0.0184489L 0.0250381 2.68145C 0.0250381 2.68145 4.94704 2.62445 8.57404 6.27045C 12.2 9.91645 12.031 14.5264 12.031 14.5264L 14.922 14.5204C 14.921 14.5194 15.358 9.00345 10.623 4.24145ZM 0.015 5.17737C 0.017 6.27637 0.01 6.89837 0 7.82337C 1.581 7.89137 3.663 7.93836 5.191 9.65137C 6.719 11.3644 6.76 12.6514 7.108 14.5184C 8.416 14.5184 8.741 14.5104 9.818 14.4904C 9.671 12.5084 8.835 9.70137 7.15 7.88037C 5.464 6.05937 2.066 5.16537 0.015 5.17737ZM 2.03401 10.4844C 0.91601 10.4844 0.0100098 11.3904 0.0100098 12.5084C 0.0100098 13.6264 0.91601 14.5324 2.03401 14.5324C 3.15201 14.5324 4.05801 13.6264 4.05801 12.5084C 4.05801 11.3904 3.15201 10.4844 2.03401 10.4844Z"/>
</defs>
</svg>
